<?xml version="1.0" standalone="no"?>
<!DOCTYPE svg PUBLIC "-//W3C//DTD SVG 20010904//EN"
 "http://www.w3.org/TR/2001/REC-SVG-20010904/DTD/svg10.dtd">
<svg version="1.0" xmlns="http://www.w3.org/2000/svg"
 width="150.000000pt" height="150.000000pt" viewBox="0 0 150.000000 150.000000"
 preserveAspectRatio="xMidYMid meet">
<metadata>
Created by potrace 1.14, written by Peter Selinger 2001-2017
</metadata>
<g transform="translate(0.000000,150.000000) scale(0.100000,-0.100000)"
fill="#000000" stroke="none">
<path d="M761 1290 c-4 -3 -21 -31 -38 -62 l-31 -58 55 0 c52 0 61 4 134 58
43 31 78 59 79 62 0 7 -189 7 -199 0z"/>
<path d="M1061 1129 c-55 -12 -78 -43 -80 -108 -1 -25 -1 -24 -33 9 -106 108
-327 116 -474 17 -80 -53 -141 -150 -159 -252 -6 -37 -7 -149 -1 -190 13 -89
66 -188 127 -239 142 -120 392 -121 501 -2 18 20 36 36 39 36 4 0 10 -12 14
-27 11 -44 70 -167 87 -181 14 -11 19 -8 36 20 11 18 34 69 51 113 l31 80 0
336 0 336 -23 21 c-31 29 -73 40 -116 31z m-202 -220 c69 -38 112 -117 113
-205 1 -89 -33 -162 -94 -206 -97 -69 -257 -43 -323 52 -89 129 -41 316 95
370 62 25 154 20 209 -11z"/>
</g>
</svg>
